<svg width="240" height="60" viewBox="0 0 240 60" fill="none" xmlns="http://www.w3.org/2000/svg">
<path d="M82.6094 39V36.9492L84.2617 36.5977V28.7344L82.4336 28.3828V26.3203H87.4375L87.5781 27.9961C87.9844 27.3867 88.4922 26.918 89.1016 26.5898C89.7188 26.2539 90.4297 26.0859 91.2344 26.0859C92.0469 26.0859 92.7422 26.2656 93.3203 26.625C93.9062 26.9844 94.3438 27.5273 94.6328 28.2539C95.0234 27.5742 95.5312 27.043 96.1562 26.6602C96.7812 26.2773 97.5156 26.0859 98.3594 26.0859C99.6094 26.0859 100.594 26.5117 101.312 27.3633C102.039 28.2148 102.402 29.5117 102.402 31.2539V36.5977L104.055 36.9492V39H97.5039V36.9492L98.9805 36.5977V31.2422C98.9805 30.3047 98.8242 29.6562 98.5117 29.2969C98.207 28.9297 97.7617 28.7461 97.1758 28.7461C96.6445 28.7461 96.1953 28.8984 95.8281 29.2031C95.4609 29.5 95.1953 29.8945 95.0312 30.3867V36.5977L96.4141 36.9492V39H90.2383V36.9492L91.6211 36.5977V31.2422C91.6211 30.3281 91.4648 29.6836 91.1523 29.3086C90.8477 28.9336 90.3945 28.7461 89.793 28.7461C89.3086 28.7461 88.8906 28.8438 88.5391 29.0391C88.1875 29.2344 87.8984 29.5156 87.6719 29.8828V36.5977L89.1484 36.9492V39H82.6094ZM111.121 39.2461C109.871 39.2461 108.797 38.9727 107.898 38.4258C107 37.8789 106.312 37.1211 105.836 36.1523C105.359 35.1758 105.121 34.0547 105.121 32.7891V32.543C105.121 31.2852 105.359 30.1719 105.836 29.2031C106.312 28.2266 106.996 27.4648 107.887 26.918C108.785 26.3633 109.855 26.0859 111.098 26.0859C112.355 26.0859 113.43 26.3633 114.32 26.918C115.211 27.4648 115.895 28.2227 116.371 29.1914C116.848 30.1602 117.086 31.2773 117.086 32.543V32.7891C117.086 34.0547 116.848 35.1758 116.371 36.1523C115.895 37.1211 115.211 37.8789 114.32 38.4258C113.43 38.9727 112.363 39.2461 111.121 39.2461ZM111.121 36.6211C111.715 36.6211 112.199 36.4609 112.574 36.1406C112.949 35.8203 113.227 35.375 113.406 34.8047C113.586 34.2266 113.676 33.5547 113.676 32.7891V32.543C113.676 31.793 113.586 31.1328 113.406 30.5625C113.227 29.9844 112.945 29.5352 112.562 29.2148C112.188 28.8867 111.699 28.7227 111.098 28.7227C110.512 28.7227 110.027 28.8867 109.645 29.2148C109.262 29.5352 108.98 29.9844 108.801 30.5625C108.629 31.1328 108.543 31.793 108.543 32.543V32.7891C108.543 33.5547 108.629 34.2266 108.801 34.8047C108.98 35.3828 109.262 35.832 109.645 36.1523C110.027 36.4648 110.52 36.6211 111.121 36.6211ZM124.809 39.2461C123.559 39.2461 122.484 38.9727 121.586 38.4258C120.688 37.8789 120 37.1211 119.523 36.1523C119.047 35.1758 118.809 34.0547 118.809 32.7891V32.543C118.809 31.2852 119.047 30.1719 119.523 29.2031C120 28.2266 120.684 27.4648 121.574 26.918C122.473 26.3633 123.543 26.0859 124.785 26.0859C126.043 26.0859 127.117 26.3633 128.008 26.918C128.898 27.4648 129.582 28.2227 130.059 29.1914C130.535 30.1602 130.773 31.2773 130.773 32.543V32.7891C130.773 34.0547 130.535 35.1758 130.059 36.1523C129.582 37.1211 128.898 37.8789 128.008 38.4258C127.117 38.9727 126.051 39.2461 124.809 39.2461ZM124.809 36.6211C125.402 36.6211 125.887 36.4609 126.262 36.1406C126.637 35.8203 126.914 35.375 127.094 34.8047C127.273 34.2266 127.363 33.5547 127.363 32.7891V32.543C127.363 31.793 127.273 31.1328 127.094 30.5625C126.914 29.9844 126.633 29.5352 126.25 29.2148C125.875 28.8867 125.387 28.7227 124.785 28.7227C124.199 28.7227 123.715 28.8867 123.332 29.2148C122.949 29.5352 122.668 29.9844 122.488 30.5625C122.316 31.1328 122.23 31.793 122.23 32.543V32.7891C122.23 33.5547 122.316 34.2266 122.488 34.8047C122.668 35.3828 122.949 35.832 123.332 36.1523C123.715 36.4648 124.207 36.6211 124.809 36.6211ZM132.18 39V36.9492L133.82 36.5977V28.7344L132.004 28.3828V26.3203H137.008L137.16 28.1367C137.582 27.4883 138.102 26.9844 138.719 26.625C139.344 26.2656 140.055 26.0859 140.852 26.0859C142.109 26.0859 143.094 26.4883 143.805 27.293C144.516 28.0977 144.871 29.3594 144.871 31.0781V36.5977L146.512 36.9492V39H139.973V36.9492L141.438 36.5977V31.0898C141.438 30.2383 141.27 29.6367 140.934 29.2852C140.598 28.9258 140.098 28.7461 139.434 28.7461C138.941 28.7461 138.512 28.8516 138.145 29.0625C137.785 29.2656 137.484 29.5586 137.242 29.9414V36.5977L138.625 36.9492V39H132.18ZM159.484 39.2461C158.266 39.2461 157.211 38.9727 156.32 38.4258C155.438 37.8789 154.758 37.125 154.281 36.1641C153.805 35.1953 153.566 34.0898 153.566 32.8477V32.4961C153.566 31.2461 153.809 30.1406 154.293 29.1797C154.777 28.2188 155.461 27.4648 156.344 26.918C157.227 26.3633 158.266 26.0859 159.461 26.0859C160.602 26.0859 161.582 26.2656 162.402 26.625C163.23 26.9766 163.902 27.3867 164.418 27.8555L164.395 31.4883H161.816L161.359 29.2266C161.172 29.0391 160.934 28.8867 160.645 28.7695C160.355 28.6523 160.062 28.5938 159.766 28.5938C159.141 28.5938 158.621 28.75 158.207 29.0625C157.801 29.375 157.496 29.8203 157.293 30.3984C157.09 30.9766 156.988 31.6758 156.988 32.4961V32.8477C156.988 33.7148 157.102 34.4297 157.328 34.9922C157.555 35.5469 157.855 35.957 158.23 36.2227C158.613 36.4883 159.039 36.6211 159.508 36.6211C160.109 36.6211 160.59 36.4648 160.949 36.1523C161.316 35.832 161.566 35.3828 161.699 34.8047H164.629L164.664 34.875C164.531 35.7734 164.266 36.5508 163.867 37.207C163.477 37.8633 162.922 38.3672 162.203 38.7188C161.492 39.0703 160.586 39.2461 159.484 39.2461ZM172.246 39.2461C170.996 39.2461 169.922 38.9727 169.023 38.4258C168.125 37.8789 167.438 37.1211 166.961 36.1523C166.484 35.1758 166.246 34.0547 166.246 32.7891V32.543C166.246 31.2852 166.484 30.1719 166.961 29.2031C167.438 28.2266 168.121 27.4648 169.012 26.918C169.91 26.3633 170.98 26.0859 172.223 26.0859C173.48 26.0859 174.555 26.3633 175.445 26.918C176.336 27.4648 177.02 28.2227 177.496 29.1914C177.973 30.1602 178.211 31.2773 178.211 32.543V32.7891C178.211 34.0547 177.973 35.1758 177.496 36.1523C177.02 37.1211 176.336 37.8789 175.445 38.4258C174.555 38.9727 173.488 39.2461 172.246 39.2461ZM172.246 36.6211C172.84 36.6211 173.324 36.4609 173.699 36.1406C174.074 35.8203 174.352 35.375 174.531 34.8047C174.711 34.2266 174.801 33.5547 174.801 32.7891V32.543C174.801 31.793 174.711 31.1328 174.531 30.5625C174.352 29.9844 174.07 29.5352 173.688 29.2148C173.312 28.8867 172.824 28.7227 172.223 28.7227C171.637 28.7227 171.152 28.8867 170.77 29.2148C170.387 29.5352 170.105 29.9844 169.926 30.5625C169.754 31.1328 169.668 31.793 169.668 32.543V32.7891C169.668 33.5547 169.754 34.2266 169.926 34.8047C170.105 35.3828 170.387 35.832 170.77 36.1523C171.152 36.4648 171.645 36.6211 172.246 36.6211ZM179.934 39V36.9492L181.586 36.5977V28.7227H179.699V26.3203H181.586V24.9141C181.586 23.4922 181.992 22.3984 182.805 21.6328C183.625 20.8594 184.77 20.4727 186.238 20.4727C186.605 20.4727 186.992 20.5039 187.398 20.5664C187.805 20.6211 188.152 20.6875 188.441 20.7656L188.148 23.3086C187.961 23.2539 187.746 23.2148 187.504 23.1914C187.262 23.1602 187.016 23.1445 186.766 23.1445C186.172 23.1445 185.73 23.2969 185.441 23.6016C185.152 23.9062 185.008 24.3438 185.008 24.9141V26.3203H187.879V28.7227H185.008V36.5977L187.246 36.9492V39H179.934ZM189.309 39V36.9492L190.961 36.5977V28.7227H189.074V26.3203H190.961V24.9141C190.961 23.4922 191.367 22.3984 192.18 21.6328C193 20.8594 194.145 20.4727 195.613 20.4727C195.98 20.4727 196.367 20.5039 196.773 20.5664C197.18 20.6211 197.527 20.6875 197.816 20.7656L197.523 23.3086C197.336 23.2539 197.121 23.2148 196.879 23.1914C196.637 23.1602 196.391 23.1445 196.141 23.1445C195.547 23.1445 195.105 23.2969 194.816 23.6016C194.527 23.9062 194.383 24.3438 194.383 24.9141V26.3203H197.254V28.7227H194.383V36.5977L196.621 36.9492V39H189.309ZM204.566 39.2461C203.355 39.2461 202.297 38.9805 201.391 38.4492C200.484 37.9102 199.781 37.1719 199.281 36.2344C198.789 35.2969 198.543 34.2266 198.543 33.0234V32.5547C198.543 31.2969 198.777 30.1836 199.246 29.2148C199.715 28.2383 200.375 27.4727 201.227 26.918C202.086 26.3633 203.098 26.0859 204.262 26.0859C205.41 26.0859 206.375 26.3125 207.156 26.7656C207.938 27.2188 208.531 27.8711 208.938 28.7227C209.344 29.5742 209.547 30.6055 209.547 31.8164V33.6797H202.094L202.07 33.75C202.117 34.3047 202.254 34.8008 202.48 35.2383C202.715 35.668 203.043 36.0078 203.465 36.2578C203.887 36.5 204.398 36.6211 205 36.6211C205.625 36.6211 206.207 36.543 206.746 36.3867C207.293 36.2227 207.824 35.9844 208.34 35.6719L209.266 37.7812C208.742 38.2031 208.082 38.5547 207.285 38.8359C206.496 39.1094 205.59 39.2461 204.566 39.2461ZM202.117 31.418H206.348V31.1133C206.348 30.5977 206.277 30.1562 206.137 29.7891C206.004 29.4141 205.785 29.125 205.48 28.9219C205.184 28.7188 204.797 28.6172 204.32 28.6172C203.867 28.6172 203.484 28.7383 203.172 28.9805C202.859 29.2148 202.613 29.5391 202.434 29.9531C202.262 30.3672 202.145 30.8359 202.082 31.3594L202.117 31.418ZM217.246 39.2461C216.035 39.2461 214.977 38.9805 214.07 38.4492C213.164 37.9102 212.461 37.1719 211.961 36.2344C211.469 35.2969 211.223 34.2266 211.223 33.0234V32.5547C211.223 31.2969 211.457 30.1836 211.926 29.2148C212.395 28.2383 213.055 27.4727 213.906 26.918C214.766 26.3633 215.777 26.0859 216.941 26.0859C218.09 26.0859 219.055 26.3125 219.836 26.7656C220.617 27.2188 221.211 27.8711 221.617 28.7227C222.023 29.5742 222.227 30.6055 222.227 31.8164V33.6797H214.773L214.75 33.75C214.797 34.3047 214.934 34.8008 215.16 35.2383C215.395 35.668 215.723 36.0078 216.145 36.2578C216.566 36.5 217.078 36.6211 217.68 36.6211C218.305 36.6211 218.887 36.543 219.426 36.3867C219.973 36.2227 220.504 35.9844 221.02 35.6719L221.945 37.7812C221.422 38.2031 220.762 38.5547 219.965 38.8359C219.176 39.1094 218.27 39.2461 217.246 39.2461ZM214.797 31.418H219.027V31.1133C219.027 30.5977 218.957 30.1562 218.816 29.7891C218.684 29.4141 218.465 29.125 218.16 28.9219C217.863 28.7188 217.477 28.6172 217 28.6172C216.547 28.6172 216.164 28.7383 215.852 28.9805C215.539 29.2148 215.293 29.5391 215.113 29.9531C214.941 30.3672 214.824 30.8359 214.762 31.3594L214.797 31.418Z" fill="black"/>
<path d="M47.3161 16.8871C47.5981 16.8871 47.7621 16.6991 47.8081 16.4411C48.5351 12.5511 48.5121 12.4571 52.5661 11.6611C52.8471 11.6131 53.0121 11.4731 53.0121 11.1911C53.0121 10.8871 52.8471 10.7461 52.5661 10.6991C48.5121 9.87914 48.5361 9.80914 47.8081 5.91814C47.7621 5.66014 47.5981 5.47314 47.3161 5.47314C47.0361 5.47314 46.8941 5.66014 46.8481 5.91814C46.0981 9.80814 46.1441 9.87814 42.0661 10.6991C41.8081 10.7461 41.6211 10.8871 41.6211 11.1911C41.6211 11.4731 41.8091 11.6131 42.0661 11.6611C46.1681 12.4571 46.0981 12.5511 46.8481 16.4411C46.8941 16.6991 47.0351 16.8871 47.3161 16.8871ZM58.5431 32.7301C58.9651 32.7301 59.2691 32.4261 59.3161 31.9801C60.0901 25.6761 60.3471 25.5821 66.7461 24.5271C67.2621 24.4341 67.5661 24.1991 67.5661 23.7301C67.5661 23.2851 67.2621 23.0041 66.8401 22.9341C60.3471 21.8321 60.0901 21.7851 59.3161 15.4801C59.2691 15.0351 58.9651 14.7301 58.5431 14.7301C58.0971 14.7301 57.7931 15.0351 57.7461 15.4571C56.9261 21.7621 56.7381 21.8321 50.2231 22.9341C49.8011 23.0041 49.4961 23.2851 49.4961 23.7301C49.4961 24.1751 49.8011 24.4341 50.2231 24.5271C56.7381 25.5821 56.9731 25.6761 57.7461 32.0271C57.7643 32.2238 57.857 32.4061 58.0051 32.5368C58.1532 32.6674 58.3457 32.7366 58.5431 32.7301ZM40.9181 54.5281C49.4961 54.5281 56.4341 50.2161 59.5981 42.8801C60.0191 41.8721 59.8781 41.0991 59.4341 40.6301C59.0121 40.2321 58.3091 40.1381 57.4641 40.4661C55.7071 41.1691 53.5511 41.5671 50.8551 41.5671C40.3791 41.5671 33.6291 35.0281 33.6291 24.7391C33.6291 21.9031 34.1681 19.0911 34.8941 17.6141C35.3641 16.6771 35.3161 15.8801 34.9181 15.3881C34.4731 14.8721 33.6761 14.7081 32.5741 15.1531C25.3791 18.0831 20.4341 25.5831 20.4341 34.3491C20.4341 45.7631 28.8241 54.5281 40.9181 54.5281ZM40.9651 50.9671C30.9571 50.9671 23.9961 43.6771 23.9961 34.0681C23.9961 28.1621 26.7381 22.9591 31.0981 19.6311C30.5351 21.1541 30.2071 23.4981 30.2071 25.7481C30.2071 37.2791 38.1761 45.0141 49.9651 45.0141C52.0751 45.0141 53.9961 44.7561 54.9801 44.4041C52.0501 48.4591 46.8241 50.9671 40.9651 50.9671Z" fill="black"/>
</svg>
